<?xml version="1.0" encoding="UTF-8"?>
<svg width="375px" height="667px" viewBox="0 0 375 667" version="1.1" xmlns="http://www.w3.org/2000/svg" xmlns:xlink="http://www.w3.org/1999/xlink" style="background: #EB5A46;">
    <!-- Generator: Sketch 43.2 (39069) - http://www.bohemiancoding.com/sketch -->
    <title>iPhone 7</title>
    <desc>Created with Sketch.</desc>
    <defs>
        <rect id="path-1" x="0.716735899" y="3.89669411" width="479.762496" height="321.214375" rx="17.8464"></rect>
        <path d="M71.8318399,11.8558979 C70.4319377,5.38251467 74.6730118,0.134800733 81.3003676,0.134800733 L397.360763,0.134800733 C403.989989,0.134800733 408.405007,5.41814609 407.221023,11.9407627 L398.698787,58.8901223 C396.726036,69.7580964 386.174755,78.5683301 375.128756,78.5683301 L106.256793,78.5683301 C95.2121756,78.5683301 84.3664909,69.818232 82.0332743,59.0290461 L71.8318399,11.8558979 Z" id="path-2"></path>
        <rect id="path-3" x="23.9881248" y="93.5877973" width="431.786246" height="218.331245" rx="17.8464"></rect>
        <rect id="path-4" x="83.2529037" y="125.985337" width="313.256688" height="108.209937" rx="17.8464"></rect>
        <rect id="path-5" x="132.834885" y="145.730462" width="214.779999" height="71.3899994" rx="16.4736"></rect>
    </defs>
    <g id="Page-1" stroke="none" stroke-width="1" fill="none" fill-rule="evenodd">
        <g id="iPhone-7">
            <path d="M363.382812,150.037896 C385.1453,148.798895 390.023298,178.237229 379.847656,194.997653 C373.903265,204.788732 363.239579,220.986939 352.289062,229.028991 C335.178851,241.59472 326.865938,242.512229 316.589844,256.922672 C310.247956,265.816071 304.793474,276.58799 314.855469,284.618753 C328.708321,295.675107 352.436402,270.529338 345.835938,255.608035 C341.658305,246.163894 318.871788,244.998382 311.59375,246.478168 C273.718588,254.179027 260.05736,279.54652 234.566406,302.422801 C230.507502,306.065373 225.296851,308.136848 220.320313,310.242065 C216.365924,311.914883 212.18936,313.204191 207.941406,313.685928 C203.028197,314.243109 197.917153,314.544698 193.117188,313.327024 C190.353868,312.626015 188.143294,310.310624 186.195313,308.169294 C185.014058,306.870793 184.403096,305.057937 184.015625,303.322077 C180.012049,285.386137 216.359143,291.120937 223.496094,294.555146 C245.536936,305.160917 243.072074,334.279733 247.40625,353.826696 C249.269923,362.231788 251.548969,370.785337 255.832031,378.187795 C258.771587,383.268258 263.496929,387.283726 268.46875,390.229219 C274.311928,393.690937 281.213542,394.743073 287.585938,397" id="Path-4" stroke="#0C0B0B" stroke-width="2.8"></path>
            <path d="M358.382812,153.037896 C380.1453,151.798895 385.023298,181.237229 374.847656,197.997653 C368.903265,207.788732 358.239579,223.986939 347.289062,232.028991 C330.178851,244.59472 321.865938,245.512229 311.589844,259.922672 C305.247956,268.816071 299.793474,279.58799 309.855469,287.618753 C323.708321,298.675107 347.436402,273.529338 340.835938,258.608035 C336.658305,249.163894 313.871788,247.998382 306.59375,249.478168 C268.718588,257.179027 255.05736,282.54652 229.566406,305.422801 C225.507502,309.065373 220.296851,311.136848 215.320313,313.242065 C211.365924,314.914883 207.18936,316.204191 202.941406,316.685928 C198.028197,317.243109 192.917153,317.544698 188.117188,316.327024 C185.353868,315.626015 183.143294,313.310624 181.195313,311.169294 C180.014058,309.870793 179.403096,308.057937 179.015625,306.322077 C175.012049,288.386137 211.359143,294.120937 218.496094,297.555146 C240.536936,308.160917 238.072074,337.279733 242.40625,356.826696 C244.269923,365.231788 246.548969,373.785337 250.832031,381.187795 C253.771587,386.268258 258.496929,390.283726 263.46875,393.229219 C269.311928,396.690937 276.213542,397.743073 282.585938,400" id="Path-4" stroke="#0C0B0B" stroke-width="2.8"></path>
            <path d="M354.382812,155.037896 C376.1453,153.798895 381.023298,183.237229 370.847656,199.997653 C364.903265,209.788732 354.239579,225.986939 343.289062,234.028991 C326.178851,246.59472 317.865938,247.512229 307.589844,261.922672 C301.247956,270.816071 295.793474,281.58799 305.855469,289.618753 C319.708321,300.675107 343.436402,275.529338 336.835938,260.608035 C332.658305,251.163894 309.871788,249.998382 302.59375,251.478168 C264.718588,259.179027 251.05736,284.54652 225.566406,307.422801 C221.507502,311.065373 216.296851,313.136848 211.320313,315.242065 C207.365924,316.914883 203.18936,318.204191 198.941406,318.685928 C194.028197,319.243109 188.917153,319.544698 184.117188,318.327024 C181.353868,317.626015 179.143294,315.310624 177.195313,313.169294 C176.014058,311.870793 175.403096,310.057937 175.015625,308.322077 C171.012049,290.386137 207.359143,296.120937 214.496094,299.555146 C236.536936,310.160917 234.072074,339.279733 238.40625,358.826696 C240.269923,367.231788 242.548969,375.785337 246.832031,383.187795 C249.771587,388.268258 254.496929,392.283726 259.46875,395.229219 C265.311928,398.690937 272.213542,399.743073 278.585938,402" id="Path-4" stroke="#0C0B0B" stroke-width="2.8"></path>
            <path d="M351.382812,156.037896 C373.1453,154.798895 378.023298,184.237229 367.847656,200.997653 C361.903265,210.788732 351.239579,226.986939 340.289062,235.028991 C323.178851,247.59472 314.865938,248.512229 304.589844,262.922672 C298.247956,271.816071 292.793474,282.58799 302.855469,290.618753 C316.708321,301.675107 340.436402,276.529338 333.835938,261.608035 C329.658305,252.163894 306.871788,250.998382 299.59375,252.478168 C261.718588,260.179027 248.05736,285.54652 222.566406,308.422801 C218.507502,312.065373 213.296851,314.136848 208.320313,316.242065 C204.365924,317.914883 200.18936,319.204191 195.941406,319.685928 C191.028197,320.243109 185.917153,320.544698 181.117188,319.327024 C178.353868,318.626015 176.143294,316.310624 174.195313,314.169294 C173.014058,312.870793 172.403096,311.057937 172.015625,309.322077 C168.012049,291.386137 204.359143,297.120937 211.496094,300.555146 C233.536936,311.160917 231.072074,340.279733 235.40625,359.826696 C237.269923,368.231788 239.548969,376.785337 243.832031,384.187795 C246.771587,389.268258 251.496929,393.283726 256.46875,396.229219 C262.311928,399.690937 269.213542,400.743073 275.585938,403" id="Path-4" stroke="#0C0B0B" stroke-width="2.8"></path>
            <text id="SPEAKEASY" stroke="#0C0B0B" fill="#0C0B0B" transform="translate(201.830158, 190.212581) rotate(-21.000000) translate(-201.830158, -190.212581) " font-family="Monoton-Regular, Monoton" font-size="55" font-weight="normal">
                <tspan x="-8.29212261" y="211.212581">SPEAKEASY</tspan>
            </text>
            <g id="casette_tape" transform="translate(261.609407, 555.058317) scale(-1, 1) rotate(-339.000000) translate(-261.609407, -555.058317) translate(21.109407, 392.058317)">
                <g id="Rectangle">
                    <use fill="#433B3B" fill-rule="evenodd" xlink:href="#path-1"></use>
                    <rect stroke="#0C0B0B" stroke-width="4" x="2.7167359" y="5.89669411" width="475.762496" height="317.214375" rx="17.8464"></rect>
                </g>
                <g id="Rectangle-2">
                    <use fill="#433B3B" fill-rule="evenodd" xlink:href="#path-2"></use>
                    <path stroke="#0C0B0B" stroke-width="4" d="M73.7866525,11.4331597 C72.6564791,6.20704808 75.9465676,2.13480073 81.3003676,2.13480073 L397.360763,2.13480073 C402.743535,2.13480073 406.214146,6.28955922 405.25318,11.5835603 L396.730944,58.5329199 C394.930769,68.4501644 385.207441,76.5683301 375.128756,76.5683301 L106.256793,76.5683301 C96.154474,76.5683301 86.1223989,68.4757251 83.9880869,58.6063079 L73.7866525,11.4331597 Z"></path>
                </g>
                <g id="Rectangle">
                    <use fill="#DCD9D8" fill-rule="evenodd" xlink:href="#path-3"></use>
                    <rect stroke="#0C0B0B" stroke-width="2.7456" x="25.3609248" y="94.9605973" width="429.040646" height="215.585645" rx="17.8464"></rect>
                </g>
                <ellipse id="Oval" stroke="#000000" stroke-width="2.7456" fill="#EA5945" cx="125.986211" cy="21.1117593" rx="10.5829962" ry="10.5644151"></ellipse>
                <ellipse id="Oval" stroke="#000000" stroke-width="2.7456" fill="#EA5945" cx="169.729262" cy="28.1547027" rx="10.5829962" ry="10.5644151"></ellipse>
                <g id="Group" transform="translate(339.808213, 24.219118) scale(1, -1) translate(-339.808213, -24.219118) translate(307.308213, 9.719118)" stroke="#000000" stroke-width="2.7456" fill="#EB5A46">
                    <ellipse id="Oval" cx="10.5829962" cy="10.5644151" rx="10.5829962" ry="10.5644151"></ellipse>
                    <ellipse id="Oval" cx="54.3260473" cy="17.6073585" rx="10.5829962" ry="10.5644151"></ellipse>
                </g>
                <g id="Rectangle-3">
                    <use fill="#EB5A46" fill-rule="evenodd" xlink:href="#path-4"></use>
                    <rect stroke="#0C0B0B" stroke-width="3" x="84.7529037" y="127.485337" width="310.256688" height="105.209937" rx="17.8464"></rect>
                </g>
                <mask id="mask-6" fill="white">
                    <use xlink:href="#path-5"></use>
                </mask>
                <g id="Rectangle-5">
                    <use fill-opacity="0.469599185" fill="#FFFFFF" fill-rule="evenodd" xlink:href="#path-5"></use>
                    <rect stroke="#0C0B0B" stroke-width="2" x="131.834885" y="144.730462" width="216.779999" height="73.3899994" rx="16.4736"></rect>
                </g>
                <g id="Group-2" mask="url(#mask-6)" stroke="#433B3B">
                    <g transform="translate(100.343394, 103.377192)" id="Oval-2">
                        <ellipse stroke-width="4" cx="50.0520921" cy="66.487475" rx="49.734319" ry="65.8960168"></ellipse>
                        <path d="M51.9743963,124.585301 C76.4989552,124.585301 96.3800383,98.2436476 96.3800383,65.7495715 C96.3800383,33.2554955 76.4989552,6.91384226 51.9743963,6.91384226 C27.4498374,6.91384226 7.56875432,33.2554955 7.56875432,65.7495715 C7.56875432,98.2436476 27.4498374,124.585301 51.9743963,124.585301 Z M51.9743963,118.281473 C73.8713239,118.281473 91.622291,94.7621394 91.622291,65.7495715 C91.622291,36.7370037 73.8713239,13.2176704 51.9743963,13.2176704 C30.0774688,13.2176704 12.3265017,36.7370037 12.3265017,65.7495715 C12.3265017,94.7621394 30.0774688,118.281473 51.9743963,118.281473 Z M51.9743963,118.281473 C73.8713239,118.281473 91.622291,94.7621394 91.622291,65.7495715 C91.622291,36.7370037 73.8713239,13.2176704 51.9743963,13.2176704 C30.0774688,13.2176704 12.3265017,36.7370037 12.3265017,65.7495715 C12.3265017,94.7621394 30.0774688,118.281473 51.9743963,118.281473 Z" stroke-width="2"></path>
                        <path d="M45.7576064,119.878442 C67.8297094,119.878442 85.7226842,96.1709545 85.7226842,66.9262861 C85.7226842,37.6816177 67.8297094,13.9741298 45.7576064,13.9741298 C23.6855034,13.9741298 5.79252864,37.6816177 5.79252864,66.9262861 C5.79252864,96.1709545 23.6855034,119.878442 45.7576064,119.878442 Z M45.7576064,114.204997 C65.4648413,114.204997 81.4407116,93.0375972 81.4407116,66.9262861 C81.4407116,40.814975 65.4648413,19.6475751 45.7576064,19.6475751 C26.0503716,19.6475751 10.0745013,40.814975 10.0745013,66.9262861 C10.0745013,93.0375972 26.0503716,114.204997 45.7576064,114.204997 Z M45.7576064,114.204997 C65.4648413,114.204997 81.4407116,93.0375972 81.4407116,66.9262861 C81.4407116,40.814975 65.4648413,19.6475751 45.7576064,19.6475751 C26.0503716,19.6475751 10.0745013,40.814975 10.0745013,66.9262861 C10.0745013,93.0375972 26.0503716,114.204997 45.7576064,114.204997 Z" stroke-width="4"></path>
                        <path d="M42.2051551,115.171584 C62.3152934,115.171584 78.6177815,93.5714285 78.6177815,66.9262861 C78.6177815,40.2811438 62.3152934,18.6809881 42.2051551,18.6809881 C22.0950168,18.6809881 5.79252864,40.2811438 5.79252864,66.9262861 C5.79252864,93.5714285 22.0950168,115.171584 42.2051551,115.171584 Z M42.2051551,110.002445 C60.1606357,110.002445 74.7164287,90.7165918 74.7164287,66.9262861 C74.7164287,43.1359805 60.1606357,23.8501272 42.2051551,23.8501272 C24.2496745,23.8501272 9.69388147,43.1359805 9.69388147,66.9262861 C9.69388147,90.7165918 24.2496745,110.002445 42.2051551,110.002445 Z M36.876478,110.002445 C54.8319587,110.002445 69.3877517,90.7165918 69.3877517,66.9262861 C69.3877517,43.1359805 54.8319587,23.8501272 36.876478,23.8501272 C18.9209974,23.8501272 4.36520443,43.1359805 4.36520443,66.9262861 C4.36520443,90.7165918 18.9209974,110.002445 36.876478,110.002445 Z M35.4491538,105.757867 C51.6353627,105.757867 64.7568776,88.3723763 64.7568776,66.9262861 C64.7568776,45.4801959 51.6353627,28.0947048 35.4491538,28.0947048 C19.262945,28.0947048 6.14143011,45.4801959 6.14143011,66.9262861 C6.14143011,88.3723763 19.262945,105.757867 35.4491538,105.757867 Z M34.561041,103.404438 C49.2757763,103.404438 61.2044262,87.5994463 61.2044262,68.1030007 C61.2044262,48.6065551 49.2757763,32.8015631 34.561041,32.8015631 C19.8463057,32.8015631 7.91765579,48.6065551 7.91765579,68.1030007 C7.91765579,87.5994463 19.8463057,103.404438 34.561041,103.404438 Z M33.6729282,101.051009 C46.91619,101.051009 57.6519748,86.8265163 57.6519748,69.2797153 C57.6519748,51.7329142 46.91619,37.5084215 33.6729282,37.5084215 C20.4296664,37.5084215 9.69388147,51.7329142 9.69388147,69.2797153 C9.69388147,86.8265163 20.4296664,101.051009 33.6729282,101.051009 Z" stroke-width="2"></path>
                        <path d="M38.2672407,111.202629 C56.5476227,111.202629 71.3668003,91.7098058 71.3668003,67.6641896 C71.3668003,43.6185733 56.5476227,24.1257499 38.2672407,24.1257499 C19.9868587,24.1257499 5.16768106,43.6185733 5.16768106,67.6641896 C5.16768106,91.7098058 19.9868587,111.202629 38.2672407,111.202629 Z M40.1895449,105.799893 C56.5113145,105.799893 69.7427231,88.3955863 69.7427231,66.9262861 C69.7427231,45.4569859 56.5113145,28.0526793 40.1895449,28.0526793 C23.8677752,28.0526793 10.6363666,45.4569859 10.6363666,66.9262861 C10.6363666,88.3955863 23.8677752,105.799893 40.1895449,105.799893 Z M35.3457069,105.799893 C51.6674765,105.799893 64.8988851,88.3955863 64.8988851,66.9262861 C64.8988851,45.4569859 51.6674765,28.0526793 35.3457069,28.0526793 C19.0239372,28.0526793 5.79252864,45.4569859 5.79252864,66.9262861 C5.79252864,88.3955863 19.0239372,105.799893 35.3457069,105.799893 Z M34.0482503,101.96942 C48.7617285,101.96942 60.6893592,86.2800748 60.6893592,66.9262861 C60.6893592,47.5724974 48.7617285,31.8831518 34.0482503,31.8831518 C19.3347721,31.8831518 7.40714131,47.5724974 7.40714131,66.9262861 C7.40714131,86.2800748 19.3347721,101.96942 34.0482503,101.96942 Z M33.2409439,99.8455942 C46.6168332,99.8455942 57.4601339,85.5825526 57.4601339,67.9881993 C57.4601339,50.3938459 46.6168332,36.1308044 33.2409439,36.1308044 C19.8650547,36.1308044 9.02175397,50.3938459 9.02175397,67.9881993 C9.02175397,85.5825526 19.8650547,99.8455942 33.2409439,99.8455942 Z M32.4336376,97.7217678 C44.4719379,97.7217678 54.2309086,84.8850305 54.2309086,69.0501124 C54.2309086,53.2151944 44.4719379,40.3784571 32.4336376,40.3784571 C20.3953373,40.3784571 10.6363666,53.2151944 10.6363666,69.0501124 C10.6363666,84.8850305 20.3953373,97.7217678 32.4336376,97.7217678 Z M30.6596882,93.9907216 C41.4504941,93.9907216 50.1981706,82.4003942 50.1981706,68.1030007 C50.1981706,53.8056073 41.4504941,42.2152798 30.6596882,42.2152798 C19.8688823,42.2152798 11.1212057,53.8056073 11.1212057,68.1030007 C11.1212057,82.4003942 19.8688823,93.9907216 30.6596882,93.9907216 Z M28.8834625,91.6372924 C38.693286,91.6372924 46.6457193,81.1006311 46.6457193,68.1030007 C46.6457193,55.1053703 38.693286,44.568709 28.8834625,44.568709 C19.0736389,44.568709 11.1212057,55.1053703 11.1212057,68.1030007 C11.1212057,81.1006311 19.0736389,91.6372924 28.8834625,91.6372924 Z M23.4087069,92.3751959 C33.2185305,92.3751959 41.1709637,81.8385346 41.1709637,68.8409041 C41.1709637,55.8432737 33.2185305,45.3066124 23.4087069,45.3066124 C13.5988834,45.3066124 5.64645014,55.8432737 5.64645014,68.8409041 C5.64645014,81.8385346 13.5988834,92.3751959 23.4087069,92.3751959 Z" stroke-width="3"></path>
                    </g>
                </g>
                <g id="Group-2" mask="url(#mask-6)" stroke="#433B3B">
                    <g transform="translate(344.240247, 169.580527) scale(-1, -1) translate(-344.240247, -169.580527) translate(278.240247, 96.580527)" id="Oval-2">
                        <ellipse stroke-width="2" cx="65.9095466" cy="72.9737637" rx="65.4992596" ry="72.8191199"></ellipse>
                        <ellipse stroke-width="3" cx="68.7930028" cy="71.8669086" rx="59.1606216" ry="65.7721083"></ellipse>
                        <path d="M69.7541549,130.223054 C98.9269309,130.223054 122.576138,103.930932 122.576138,71.4979569 C122.576138,39.0649815 98.9269309,12.7728601 69.7541549,12.7728601 C40.581379,12.7728601 16.9321714,39.0649815 16.9321714,71.4979569 C16.9321714,103.930932 40.581379,130.223054 69.7541549,130.223054 Z M69.7541549,123.931079 C95.8012763,123.931079 116.91664,100.455971 116.91664,71.4979569 C116.91664,42.5399432 95.8012763,19.0648348 69.7541549,19.0648348 C43.7070335,19.0648348 22.5916696,42.5399432 22.5916696,71.4979569 C22.5916696,100.455971 43.7070335,123.931079 69.7541549,123.931079 Z M69.7541549,123.931079 C95.8012763,123.931079 116.91664,100.455971 116.91664,71.4979569 C116.91664,42.5399432 95.8012763,19.0648348 69.7541549,19.0648348 C43.7070335,19.0648348 22.5916696,42.5399432 22.5916696,71.4979569 C22.5916696,100.455971 43.7070335,123.931079 69.7541549,123.931079 Z" stroke-width="4"></path>
                        <path d="M64.2813814,124.787142 C90.5368798,124.787142 111.821167,101.124233 111.821167,71.9345554 C111.821167,42.7448775 90.5368798,19.0819683 64.2813814,19.0819683 C38.0258831,19.0819683 16.7415962,42.7448775 16.7415962,71.9345554 C16.7415962,101.124233 38.0258831,124.787142 64.2813814,124.787142 Z M64.2813814,119.124365 C87.7237907,119.124365 106.727618,97.9967677 106.727618,71.9345554 C106.727618,45.872343 87.7237907,24.7447455 64.2813814,24.7447455 C40.8389722,24.7447455 21.8351446,45.872343 21.8351446,71.9345554 C21.8351446,97.9967677 40.8389722,119.124365 64.2813814,119.124365 Z M64.2813814,119.124365 C87.7237907,119.124365 106.727618,97.9967677 106.727618,71.9345554 C106.727618,45.872343 87.7237907,24.7447455 64.2813814,24.7447455 C40.8389722,24.7447455 21.8351446,45.872343 21.8351446,71.9345554 C21.8351446,97.9967677 40.8389722,119.124365 64.2813814,119.124365 Z" stroke-width="3"></path>
                        <path d="M65.8225353,117.875424 C89.7442116,117.875424 109.136562,96.3158848 109.136562,69.720845 C109.136562,43.1258052 89.7442116,21.5662657 65.8225353,21.5662657 C41.900859,21.5662657 22.5085088,43.1258052 22.5085088,69.720845 C22.5085088,96.3158848 41.900859,117.875424 65.8225353,117.875424 Z M65.8225353,112.716005 C87.1811749,112.716005 104.495773,93.4664163 104.495773,69.720845 C104.495773,45.9752738 87.1811749,26.7256849 65.8225353,26.7256849 C44.4638958,26.7256849 27.1492973,45.9752738 27.1492973,69.720845 C27.1492973,93.4664163 44.4638958,112.716005 65.8225353,112.716005 Z M59.4838973,112.716005 C80.8425368,112.716005 98.1571352,93.4664163 98.1571352,69.720845 C98.1571352,45.9752738 80.8425368,26.7256849 59.4838973,26.7256849 C38.1252577,26.7256849 20.8106593,45.9752738 20.8106593,69.720845 C20.8106593,93.4664163 38.1252577,112.716005 59.4838973,112.716005 Z M59.3396356,107.235819 C78.490705,107.235819 94.0157142,89.9758142 94.0157142,68.6845198 C94.0157142,47.3932254 78.490705,30.133221 59.3396356,30.133221 C40.1885662,30.133221 24.6635569,47.3932254 24.6635569,68.6845198 C24.6635569,89.9758142 40.1885662,107.235819 59.3396356,107.235819 Z M59.3396356,102.952341 C76.3628084,102.952341 90.1628165,87.6101148 90.1628165,68.6845198 C90.1628165,49.7589248 76.3628084,34.4166987 59.3396356,34.4166987 C42.3164628,34.4166987 28.5164546,49.7589248 28.5164546,68.6845198 C28.5164546,87.6101148 42.3164628,102.952341 59.3396356,102.952341 Z M58.3764112,100.810602 C73.8036615,100.810602 86.3099189,86.9067097 86.3099189,69.7553892 C86.3099189,52.6040687 73.8036615,38.7001763 58.3764112,38.7001763 C42.9491608,38.7001763 30.4429034,52.6040687 30.4429034,69.7553892 C30.4429034,86.9067097 42.9491608,100.810602 58.3764112,100.810602 Z M54.5235135,100.810602 C69.9507639,100.810602 82.4570213,86.9067097 82.4570213,69.7553892 C82.4570213,52.6040687 69.9507639,38.7001763 54.5235135,38.7001763 C39.0962632,38.7001763 26.5900058,52.6040687 26.5900058,69.7553892 C26.5900058,86.9067097 39.0962632,100.810602 54.5235135,100.810602 Z M50.6706159,100.810602 C66.0978663,100.810602 78.6041237,86.9067097 78.6041237,69.7553892 C78.6041237,52.6040687 66.0978663,38.7001763 50.6706159,38.7001763 C35.2433656,38.7001763 22.7371081,52.6040687 22.7371081,69.7553892 C22.7371081,86.9067097 35.2433656,100.810602 50.6706159,100.810602 Z M46.8177183,100.810602 C62.2449686,100.810602 74.7512261,86.9067097 74.7512261,69.7553892 C74.7512261,52.6040687 62.2449686,38.7001763 46.8177183,38.7001763 C31.3904679,38.7001763 18.8842105,52.6040687 18.8842105,69.7553892 C18.8842105,86.9067097 31.3904679,100.810602 46.8177183,100.810602 Z" stroke-width="3"></path>
                        <ellipse stroke-width="3" cx="51.6041054" cy="71.9345554" rx="1.05643967" ry="1.17450193"></ellipse>
                    </g>
                </g>
            </g>
            <path d="M13.7832031,280.337891 C13.481487,280.269837 11.8573891,279.645972 9.72033957,278.812382 C5.26459757,277.074348 -1.42105417,274.424591 -3,274 C-10.4481862,271.997126 -11.50429,273.775398 -17.890625,275.197266 C-19.0450605,275.454292 -19.7462589,276.728011 -20.3769531,277.728516 C-22.2082567,280.633611 -24.3173349,283.508551 -25.21875,286.822266 C-29.7336358,303.41955 -25.7310428,319.434132 -8.16210937,324.417969 C6.00896252,328.437923 23.106906,327.003675 36.9550781,322.289062 C42.6769554,320.341048 59.45747,307.384647 47.0761719,302.091797 C28.7872053,294.273492 30.8242872,338.578881 36.1875,346.894531 C36.8876707,347.980144 38.0048119,348.839099 39.1972656,349.335938 C63.5195543,359.469881 91.0463873,327.616173 112.121094,344.466797 C113.707299,345.735073 115.112249,347.435134 115.744141,349.365234 C120.601133,364.200814 121.742176,380.247818 116.378906,395.097656 C109.127245,415.176081 100.556974,423.241044 107.226563,442.882812" id="Path-2" stroke="#0C0B0B" stroke-width="2.85"></path>
            <path d="M16,277 C15.6982839,276.931946 12.8573891,275.645972 10.7203396,274.812382 C6.26459757,273.074348 -0.421054171,270.424591 -2,270 C-9.4481862,267.997126 -10.50429,269.775398 -16.890625,271.197266 C-18.0450605,271.454292 -18.7462589,272.728011 -19.3769531,273.728516 C-21.2082567,276.633611 -23.3173349,279.508551 -24.21875,282.822266 C-28.7336358,299.41955 -24.7310428,315.434132 -7.16210937,320.417969 C7.00896252,324.437923 24.106906,323.003675 37.9550781,318.289062 C43.6769554,316.341048 60.45747,303.384647 48.0761719,298.091797 C29.7872053,290.273492 31.8242872,334.578881 37.1875,342.894531 C37.8876707,343.980144 39.0048119,344.839099 40.1972656,345.335938 C64.5195543,355.469881 92.0463873,323.616173 113.121094,340.466797 C114.707299,341.735073 116.112249,343.435134 116.744141,345.365234 C121.601133,360.200814 122.742176,376.247818 117.378906,391.097656 C110.127245,411.176081 101.556974,421.241044 108.226562,440.882812" id="Path-2" stroke="#0C0B0B" stroke-width="2.85"></path>
            <path d="M21,274 C20.6982839,273.931946 16.8573891,273.645972 14.7203396,272.812382 C10.2645976,271.074348 3.57894583,268.424591 2,268 C-5.4481862,265.997126 -6.50428998,267.775398 -12.890625,269.197266 C-14.0450605,269.454292 -14.7462589,270.728011 -15.3769531,271.728516 C-17.2082567,274.633611 -19.3173349,277.508551 -20.21875,280.822266 C-24.7336358,297.41955 -20.7310428,313.434132 -3.16210937,318.417969 C11.0089625,322.437923 28.106906,321.003675 41.9550781,316.289062 C47.6769554,314.341048 64.45747,301.384647 52.0761719,296.091797 C33.7872053,288.273492 35.8242872,332.578881 41.1875,340.894531 C41.8876707,341.980144 43.0048119,342.839099 44.1972656,343.335938 C68.5195543,353.469881 96.0463873,321.616173 117.121094,338.466797 C118.707299,339.735073 120.112249,341.435134 120.744141,343.365234 C125.601133,358.200814 126.742176,374.247818 121.378906,389.097656 C114.127245,409.176081 105.556974,417.241044 112.226563,436.882812" id="Path-2" stroke="#0C0B0B" stroke-width="2.85"></path>
            <path d="M29,267 L26,268.812382 L22,270 L20,270 L19,270 L17,270 C16.6982839,269.931946 15.8573891,269.645972 13.7203396,268.812382 C9.26459757,267.074348 2.57894583,264.424591 1,264 C-6.4481862,261.997126 -7.50428998,263.775398 -13.890625,265.197266 C-15.0450605,265.454292 -15.7462589,266.728011 -16.3769531,267.728516 C-18.2082567,270.633611 -20.3173349,273.508551 -21.21875,276.822266 C-25.7336358,293.41955 -21.7310428,309.434132 -4.16210937,314.417969 C10.0089625,318.437923 27.106906,317.003675 40.9550781,312.289062 C46.6769554,310.341048 63.45747,297.384647 51.0761719,292.091797 C32.7872053,284.273492 34.8242872,328.578881 40.1875,336.894531 C40.8876707,337.980144 42.0048119,338.839099 43.1972656,339.335938 C67.5195543,349.469881 95.0463873,317.616173 116.121094,334.466797 C117.707299,335.735073 119.112249,337.435134 119.744141,339.365234 C124.601133,354.200814 125.742176,370.247818 120.378906,385.097656 C113.127245,405.176081 104.556974,413.241044 111.226563,432.882812" id="Path-2" stroke="#0C0B0B" stroke-width="2.8"></path>
        </g>
    </g>
</svg>